<svg xmlns="http://www.w3.org/2000/svg" viewBox="0 0 64 64">
  <g fill="none" stroke="currentColor" stroke-width="2">
    <path d="M32 2a2 2 0 1 1 0 4a2 2 0 1 1 0-4zM10 15h12M6 30h2v9H6zm0 9v15a2 2 0 0 0 4 0V39a4 4 0 0 1 4 4v21h23"/>
    <circle cx="32" cy="22" r="4"/>
    <path d="M32 34v13m-8-11v11"/>
    <path d="M40 36v11h2v4h-4v-6a2 2 0 1 0-2-2v-5zM6 30h8l2 6M12 15l4 18m-4-8h12v4H8m8-8v2m8-2v-3.5m0 .5l4.934 .034a3 3 0 0 1-2.067 2.749m0-8.3h1.133m0 0H33M36 20v2a1 1 0 0 0 1 1h7m-2 2v6m0 0v-4"/>
    <path d="M63 23H41a1 1 0 0 0-1 1v32a1 1 0 0 0 1 1h22a1 1 0 0 0 1-1V24a1 1 0 0 0-1-1zM49.5 44l2.5 2.5l4.5-5.5m-7 12H44m-7 0h11M44 29l7 7"/>
    <path d="M45 59M9 48h5v2H9z"/>
  </g>
</svg>
