<svg width="20" height="20" viewBox="0 0 20 20" fill="none" xmlns="http://www.w3.org/2000/svg">
<path fill-rule="evenodd" clip-rule="evenodd" d="M1.66675 4.16699C1.66675 2.78628 2.78604 1.66699 4.16675 1.66699H15.8334C17.2141 1.66699 18.3334 2.78628 18.3334 4.16699V15.8337C18.3334 17.2144 17.2141 18.3337 15.8334 18.3337H4.16675C2.78604 18.3337 1.66675 17.2144 1.66675 15.8337V4.16699Z" fill="#2C73EB"/>
<path fill-rule="evenodd" clip-rule="evenodd" d="M14.0952 6.91113C14.4206 7.23657 14.4206 7.76421 14.0952 8.08964L8.92259 13.5063C8.59715 13.8317 8.06951 13.8317 7.74408 13.5063L5.24408 11.0063C4.91864 10.6809 4.91864 10.1532 5.24408 9.8278C5.56951 9.50236 6.09715 9.50236 6.42259 9.8278L8.33333 11.7385L12.9167 6.91113C13.2421 6.5857 13.7697 6.5857 14.0952 6.91113Z" fill="white"/>
</svg>
